<?xml version="1.0" encoding="UTF-8" standalone="no"?>
<!DOCTYPE svg PUBLIC "-//W3C//DTD SVG 1.1//EN" "http://www.w3.org/Graphics/SVG/1.1/DTD/svg11.dtd">
<svg version="1.1" xmlns="http://www.w3.org/2000/svg" xmlns:xlink="http://www.w3.org/1999/xlink" preserveAspectRatio="xMidYMid meet" viewBox="0 0 640 640" width="640" height="640"><defs><path d="M416.22 100C416.22 155.19 371.41 200 316.22 200C261.03 200 216.22 155.19 216.22 100C216.22 44.81 261.03 0 316.22 0C371.41 0 416.22 44.81 416.22 100Z" id="c1pC6EeyJ7"></path><path d="M416.22 314.59C416.22 369.78 371.41 414.59 316.22 414.59C261.03 414.59 216.22 369.78 216.22 314.59C216.22 259.4 261.03 214.59 316.22 214.59C371.41 214.59 416.22 259.4 416.22 314.59Z" id="b4ipyk74LL"></path><path d="M416.22 533.14C416.22 588.33 371.41 633.14 316.22 633.14C261.03 633.14 216.22 588.33 216.22 533.14C216.22 477.95 261.03 433.14 316.22 433.14C371.41 433.14 416.22 477.95 416.22 533.14Z" id="aKfGLYIfV"></path></defs><g><g><g><use xlink:href="#c1pC6EeyJ7" opacity="1" fill="#ffffff" fill-opacity="1"></use></g><g><use xlink:href="#b4ipyk74LL" opacity="1" fill="#ffffff" fill-opacity="1"></use></g><g><use xlink:href="#aKfGLYIfV" opacity="1" fill="#ffffff" fill-opacity="1"></use></g></g></g></svg>